<svg width="20" height="20" viewBox="0 0 20 20" fill="none" xmlns="http://www.w3.org/2000/svg">
<path d="M10 20C15.5228 20 20 15.5228 20 10C20 4.47715 15.5228 0 10 0C4.47715 0 0 4.47715 0 10C0 15.5228 4.47715 20 10 20Z" fill="#1A5C00"/>
<path d="M1.36457 11.3733C0.931298 10.9715 0.896417 10.2987 1.28367 9.85239C2.60175 8.33339 5.81535 5.19094 9.94927 5.04291C14.1282 4.89325 17.702 8.26158 19.1502 9.85188C19.5557 10.2972 19.5261 10.9855 19.0839 11.3945C17.5152 12.8453 13.7554 15.9413 10.2357 15.9413C6.69878 15.9413 2.91934 12.8149 1.36457 11.3733Z" fill="white"/>
<path d="M13.2479 13.6998C15.0208 11.9269 15.0208 9.05256 13.2479 7.27969C11.4751 5.50683 8.60068 5.50683 6.82782 7.27969C5.05496 9.05256 5.05496 11.9269 6.82782 13.6998C8.60068 15.4727 11.4751 15.4727 13.2479 13.6998Z" fill="#1A5C00"/>
<path d="M9.16934 12.5067C10.4472 12.3522 11.3579 11.1911 11.2034 9.91325C11.049 8.63539 9.88787 7.72469 8.61001 7.87915C7.33215 8.0336 6.42144 9.19472 6.5759 10.4726C6.73036 11.7504 7.89148 12.6611 9.16934 12.5067Z" fill="#75C200"/>
<path d="M11.1921 10.0664C11.5832 10.0341 11.8741 9.69092 11.8418 9.29983C11.8095 8.90873 11.4663 8.61783 11.0752 8.65009C10.6841 8.68235 10.3932 9.02554 10.4255 9.41664C10.4578 9.80774 10.801 10.0986 11.1921 10.0664Z" fill="white"/>
</svg>
