<svg width="21" height="20" viewBox="0 0 21 20" fill="none" xmlns="http://www.w3.org/2000/svg">
<path d="M1.67384 8.70151C1.65495 8.81188 1.7423 8.91282 1.85422 8.91282H3.07118C3.15787 8.91282 3.23049 8.85114 3.24717 8.76648C3.81332 5.90535 6.1116 3.63956 9.01795 3.07758C9.10329 3.06133 9.16475 2.98828 9.16475 2.90159V1.69605C9.16475 1.58434 9.06446 1.497 8.95431 1.51524C5.22661 2.13051 2.29177 5.02848 1.67384 8.70151Z" fill="#1A5C00"/>
<path d="M17.7868 11.17C17.6986 11.17 17.6253 11.2339 17.6104 11.3208C17.0996 14.2903 14.7344 16.6481 11.7324 17.1947C11.6464 17.2101 11.5836 17.2833 11.5836 17.3707V18.5775C11.5836 18.6884 11.683 18.7754 11.7925 18.7583C15.6255 18.1663 18.6356 15.1698 19.1908 11.3777C19.207 11.2688 19.1201 11.17 19.0093 11.17H17.7868Z" fill="#1A5C00"/>
<path d="M14.9769 11.17C14.8952 11.17 14.8259 11.2253 14.8039 11.3035C14.3897 12.7921 13.2109 13.9774 11.7135 14.4231C11.6372 14.4459 11.5836 14.515 11.5836 14.5949V15.8059C11.5836 15.9217 11.6916 16.0104 11.8039 15.9845C14.1002 15.4559 15.882 13.6682 16.3755 11.3886C16.3994 11.276 16.311 11.17 16.1964 11.17H14.9769Z" fill="#75C200"/>
<path d="M10.4012 19.9507H10.4014H10.4018C10.6039 19.9507 10.795 19.8732 10.9385 19.7317C11.0834 19.5891 11.163 19.3991 11.163 19.1972V13.2656C12.3596 12.9836 13.2976 12.0594 13.5831 10.8795L19.6687 10.8699C20.09 10.8695 20.4327 10.53 20.4327 10.1135C20.4327 9.911 20.3524 9.72033 20.2068 9.57769C20.063 9.43615 19.8717 9.35827 19.6665 9.35827L13.5831 9.37012C13.2969 8.1916 12.3596 7.26999 11.163 6.9911V0.801849C11.163 0.386673 10.8218 0.0491943 10.3992 0.0491943C9.98053 0.0515873 9.6391 0.390624 9.6391 0.805547V6.99342C8.44498 7.27648 7.50781 8.20095 7.22251 9.37904L1.19217 9.3909C0.7733 9.39177 0.432739 9.72946 0.432739 10.1444C0.432739 10.346 0.512614 10.5357 0.65677 10.6778C0.800057 10.8192 0.990079 10.897 1.19373 10.897L7.22273 10.8876C7.50865 12.0646 8.44494 12.9864 9.63906 13.2662V19.196C9.6391 19.6119 9.98096 19.9502 10.4012 19.9507ZM8.09061 10.1721C8.09061 8.87852 9.13948 7.8299 10.4328 7.8299C11.7263 7.8299 12.7747 8.87855 12.7747 10.1721C12.7747 11.4656 11.7263 12.514 10.4328 12.514C9.13948 12.514 8.09061 11.4656 8.09061 10.1721Z" fill="#1A5C00"/>
<path d="M11.7916 1.49638C11.6828 1.47992 11.5836 1.56727 11.5836 1.67763V2.88339C11.5836 2.97073 11.647 3.04426 11.7328 3.0596C14.6934 3.59083 17.0353 5.88607 17.5889 8.79723C17.6047 8.8828 17.6776 8.94512 17.7649 8.94512H18.9915C19.103 8.94512 19.1903 8.84527 19.1723 8.73512C18.5711 5.0022 15.5838 2.07218 11.7916 1.49638Z" fill="#1A5C00"/>
<path d="M11.5836 4.4475V5.66007C11.5836 5.74059 11.6374 5.80926 11.714 5.83211C13.1681 6.2611 14.3212 7.38941 14.7653 8.81676C14.789 8.89269 14.8575 8.94515 14.9365 8.94515H16.1688C16.2846 8.94515 16.3738 8.83609 16.3465 8.72308C15.8146 6.50663 14.0555 4.78149 11.8037 4.26911C11.6912 4.24344 11.5836 4.33187 11.5836 4.4475Z" fill="#75C200"/>
<path d="M6.0432 11.4279C6.01971 11.352 5.95126 11.2993 5.8716 11.2993H4.64634C4.5305 11.2993 4.44138 11.4077 4.46817 11.5205C4.99832 13.7512 6.77262 15.4882 9.0428 15.9942C9.1549 16.0195 9.26179 15.9306 9.26179 15.8158V14.6085C9.26179 14.5278 9.2078 14.4587 9.13014 14.4363C7.6571 14.013 6.48753 12.8713 6.0432 11.4279Z" fill="#75C200"/>
<path d="M3.23707 11.447C3.22126 11.3616 3.14799 11.2993 3.06065 11.2993H1.84173C1.73046 11.2993 1.64315 11.3992 1.6607 11.5089C2.25734 15.2475 5.2536 18.1902 9.05324 18.7636C9.16295 18.7801 9.26168 18.6934 9.26168 18.5828V17.3773C9.26168 17.2893 9.19848 17.216 9.11179 17.2009C6.14008 16.6738 3.78698 14.3674 3.23707 11.447Z" fill="#1A5C00"/>
<path d="M8.94262 4.28871C6.74089 4.82342 5.02055 6.51984 4.48032 8.68955C4.45182 8.803 4.54109 8.91293 4.65762 8.91293H5.89035C5.96892 8.91293 6.03693 8.86137 6.06152 8.78654C6.50874 7.3991 7.6269 6.29737 9.03696 5.85522C9.11289 5.83154 9.1647 5.76349 9.1647 5.68408V4.46669C9.1647 4.35012 9.05538 4.26126 8.94262 4.28871Z" fill="#75C200"/>
<path d="M8.09058 10.1721C8.09058 11.4656 9.13945 12.5141 10.4327 12.5141C11.7263 12.5141 12.7747 11.4656 12.7747 10.1721C12.7747 8.87857 11.7263 7.82996 10.4327 7.82996C9.13945 7.82996 8.09058 8.87861 8.09058 10.1721Z" fill="#75C200"/>
</svg>
