<svg width="21" height="18" viewBox="0 0 21 18" fill="none" xmlns="http://www.w3.org/2000/svg">
<path d="M10.0204 0.896362H4.60527C4.54376 0.896362 4.48845 0.935725 4.4636 0.997439C4.4383 1.05898 4.44847 1.13045 4.48906 1.18097L7.17746 4.50262C7.20727 4.53908 7.24872 4.55982 7.29346 4.56003C7.3382 4.56023 7.37961 4.53993 7.40967 4.50365L10.136 1.182C10.177 1.13165 10.1878 1.05977 10.1625 0.997849C10.1377 0.936136 10.0817 0.896362 10.0204 0.896362Z" fill="#1A5C00"/>
<path d="M7.02612 5.26721H1.4877C1.4264 5.26721 1.37129 5.30616 1.34603 5.36726C1.32073 5.42839 1.32987 5.49945 1.36985 5.55038L9.73317 16.1539C9.78102 16.2148 9.86122 16.231 9.92481 16.1922C9.98944 16.1535 10.0207 16.071 10.0002 15.9938L7.1759 5.39026C7.15581 5.31736 7.09512 5.26721 7.02612 5.26721Z" fill="#1A5C00"/>
<path d="M17.136 0.896484H11.5072C11.4446 0.896484 11.3887 0.936908 11.3639 1.00006C11.3399 1.06324 11.351 1.13574 11.3941 1.18547L14.281 4.51459C14.3113 4.54875 14.3531 4.56823 14.3962 4.56761C14.4405 4.56679 14.4813 4.54587 14.5105 4.51045C15.0545 3.83906 16.5344 2.01883 17.2497 1.18482C17.2917 1.13492 17.3035 1.06218 17.2793 0.999648C17.254 0.936907 17.1981 0.896484 17.136 0.896484Z" fill="#1A5C00"/>
<path d="M20.416 5.26892H14.653C14.5826 5.26892 14.5217 5.32091 14.5028 5.39509L11.8486 16.0678C11.8293 16.145 11.861 16.2262 11.9253 16.2639C11.9899 16.3018 12.069 16.2854 12.1169 16.225L20.5337 5.55209C20.5739 5.50174 20.583 5.43007 20.5573 5.36918C20.5324 5.30804 20.4775 5.26892 20.416 5.26892Z" fill="#1A5C00"/>
<path d="M10.7587 1.16348C10.7156 1.16389 10.6742 1.18442 10.6452 1.22002L7.90249 4.56119C7.86145 4.6113 7.8507 4.68362 7.87555 4.74513C7.90084 4.80684 7.95636 4.84662 8.01828 4.84662H13.6584C13.721 4.84662 13.7769 4.80602 13.8017 4.74304C13.826 4.67965 13.8142 4.60736 13.7711 4.55763L10.8738 1.21646C10.8438 1.18196 10.8022 1.16266 10.7587 1.16348Z" fill="#75C200"/>
<path d="M17.8105 1.16348C17.7668 1.16389 17.7259 1.18442 17.6961 1.22002L14.9539 4.56119C14.9122 4.6113 14.9025 4.68362 14.9269 4.74513C14.9522 4.80684 15.0077 4.84662 15.0694 4.84662H20.7098C20.7721 4.84662 20.8283 4.80602 20.8523 4.74304C20.8777 4.67965 20.8653 4.60736 20.8228 4.55763L17.9252 1.21646C17.895 1.18196 17.8535 1.16266 17.8105 1.16348Z" fill="#75C200"/>
<path d="M3.76228 1.16348C3.71877 1.16389 3.67777 1.18442 3.64874 1.22002L0.905648 4.56119C0.864232 4.6113 0.853861 4.68362 0.879121 4.74513C0.903971 4.80684 0.959934 4.84662 1.02124 4.84662H6.66094C6.72412 4.84662 6.78005 4.80602 6.80494 4.74304C6.82958 4.67965 6.81716 4.60736 6.77406 4.55763L3.87704 1.21646C3.84744 1.18196 3.80578 1.16266 3.76228 1.16348Z" fill="#75C200"/>
<path d="M7.88206 5.29004C7.83294 5.29004 7.78656 5.31571 7.75692 5.3586C7.72731 5.40149 7.71817 5.45783 7.73207 5.50941L10.7876 16.9805C10.807 17.0542 10.8696 17.1043 10.9384 17.1037C11.0084 17.1033 11.0693 17.0511 11.0875 16.9778L13.94 5.50653C13.9528 5.45516 13.9427 5.39984 13.9143 5.35737C13.8845 5.31513 13.8383 5.29007 13.7898 5.29007H7.88206V5.29004Z" fill="#1A5C00"/>
</svg>
